<svg width="40" height="70" viewBox="0 0 40 70" fill="none" xmlns="http://www.w3.org/2000/svg">
<path d="M38.7298 39.2015C39.5421 38.3815 39.999 37.2691 40 36.1087V33.8913C39.9867 32.7335 39.5317 31.6255 38.7298 30.7985L9.05267 0.863047C8.51061 0.310692 7.77273 0 7.00298 0C6.23323 0 5.49536 0.310692 4.9533 0.863047L0.853931 5.00617C0.310829 5.54397 0.00477982 6.28009 0.00477982 7.04855C0.00477982 7.81701 0.310829 8.55312 0.853931 9.09093L26.5471 35L0.853931 60.9091C0.307411 61.4569 0 62.2027 0 62.9806C0 63.7586 0.307411 64.5043 0.853931 65.0522L4.9533 69.137C5.49536 69.6893 6.23323 70 7.00298 70C7.77273 70 8.51061 69.6893 9.05267 69.137L38.7298 39.2015Z" fill="white"/>
</svg>
