<svg width="258" height="204" viewBox="0 0 258 204" fill="none" xmlns="http://www.w3.org/2000/svg">
<g filter="url(#filter0_d_97_3611)">
<path d="M62.3 34V0H195.2V34H181.8V68H202.4V102V136H204.5V170H211.7V204H78.8V170H71.6V136H69.6V102V68H49V34H62.3Z" fill="#FBFBFB"/>
<path d="M62.3 34H122.5L62.3 27.5V34Z" fill="#E6E6E6"/>
<path d="M195.2 24.3H124L195.2 21.9V24.3Z" fill="#E6E6E6"/>
<path d="M181.8 34H150.9L181.8 37.5V34Z" fill="#E6E6E6"/>
<path d="M62.3 5H168.9L62.3 7.4V5Z" fill="#E6E6E6"/>
<path d="M195.2 14H81.5L195.2 11.4V14Z" fill="#E6E6E6"/>
<path d="M49 40.9H148.8L49 44.6V40.9Z" fill="#E6E6E6"/>
<path d="M69.6001 68H202.4L69.6001 74.4V68Z" fill="#E6E6E6"/>
<path d="M181.8 60.4001H96.3L181.8 57.8V60.4001Z" fill="#E6E6E6"/>
<path d="M49 53.3L86.8 55.9001H49V53.3Z" fill="#E6E6E6"/>
<path d="M202.4 102L69.6001 103.4L202.4 106.8V102Z" fill="#E6E6E6"/>
<path d="M202.4 78.3H117.8L202.4 81.2V78.3Z" fill="#E6E6E6"/>
<path d="M69.6001 87L168.9 89.9L69.6001 91.2V87Z" fill="#E6E6E6"/>
<path d="M69.6001 97.3H122.5L69.6001 99.9V97.3Z" fill="#E6E6E6"/>
<path d="M69.6001 136H199.6L69.6001 127.9V136Z" fill="#E6E6E6"/>
<path d="M202.4 116.3L148.8 118.1L202.4 119.7V116.3Z" fill="#E6E6E6"/>
<path d="M69.6001 110.8L104 113.7H69.6001V110.8Z" fill="#E6E6E6"/>
<path d="M204.5 143.9L164.2 145.5H204.5V143.9Z" fill="#E6E6E6"/>
<path d="M204.5 156.4L74 162H204.5V156.4Z" fill="#E6E6E6"/>
<path d="M211.7 170H83.7L211.7 176.3V170Z" fill="#E6E6E6"/>
<path d="M78.8 177.2H120.2L78.8 181.3V177.2Z" fill="#E6E6E6"/>
<path d="M211.7 188.4L125.9 192.3H211.7V188.4Z" fill="#E6E6E6"/>
<path d="M211.7 204L78.8 197.3V204H211.7Z" fill="#E6E6E6"/>
<path d="M233.1 192.3C238.7 192.3 243.3 190.8 246.8 187.8C253.5 182 253.2 172.7 253.2 172.3C253.2 171.4 252.4 170.6 251.4 170.6H232C231 170.6 230.2 171.4 230.2 172.4C230.2 173.4 231 174.2 232 174.2H249.5C249.3 176.8 248.3 181.8 244.4 185.2C240.5 188.6 234.5 189.6 226.6 188.2C225.6 188 224.7 188.7 224.5 189.6C224.3 190.6 225 191.5 225.9 191.7C228.5 192 230.9 192.3 233.1 192.3Z" fill="#E8462C"/>
<path d="M238.1 167.2H179C179 167.2 181.4 203.6 208.5 204.1C235.7 204.5 238.1 167.2 238.1 167.2Z" fill="#FF5B41"/>
<path d="M205 197.4C224.9 197.7 231.5 177.9 233.6 167.2H238.1C238.1 167.2 235.7 204.5 208.6 204.1C194.9 203.9 187.5 194.5 183.6 185.3C187.9 191.8 194.7 197.2 205 197.4Z" fill="#E8462C"/>
<path d="M141.4 137.9V115H31C52.1 122.7 70 135.8 93.5 140.6C110.1 143.9 125.9 141.7 141.4 137.9Z" fill="#7860DC"/>
<path d="M93.4999 140.6C69.9999 135.8 52.0999 122.7 30.9999 115H26.3999V144.5H141.5V137.9C125.9 141.7 110.1 143.9 93.4999 140.6Z" fill="#6A51D4"/>
<path d="M62.0999 189.7C83.3999 196.4 105.5 197.4 127.2 194.8V174H12.2V174.7C29.5 174.3 45.9999 184.9 62.0999 189.7Z" fill="#FF5B41"/>
<path d="M62.0999 189.7C45.9999 184.9 29.5 174.3 12.2 174.7V203.5H127.3V194.8C105.5 197.4 83.4999 196.4 62.0999 189.7Z" fill="#F23F22"/>
<path d="M119.1 167.7V144.5H12.5C25.8 148 38.4 157 51.7 161.6C73.7 168.2 96.6 170.1 119.1 167.7Z" fill="#FFA42F"/>
<path d="M51.7 161.6C38.4 157 25.8 148 12.5 144.5H4V174H119.1V167.7C96.6 170.1 73.7 168.2 51.7 161.6Z" fill="#FA9514"/>
<path d="M40.5 136.7C36.7 136.7 33.5 133.6 33.5 129.7C33.5 125.9 36.6 122.7 40.5 122.7C44.4 122.7 47.5 125.8 47.5 129.7C47.4 133.6 44.3 136.7 40.5 136.7Z" fill="white"/>
<path d="M18.2 166.2C14.4 166.2 11.2 163.1 11.2 159.2C11.2 155.3 14.3 152.2 18.2 152.2C22.1 152.2 25.2 155.3 25.2 159.2C25.2 163.1 22 166.2 18.2 166.2Z" fill="white"/>
<path d="M26.3 195.7C22.5 195.7 19.3 192.6 19.3 188.7C19.3 184.8 22.4 181.7 26.3 181.7C30.1 181.7 33.3 184.8 33.3 188.7C33.3 192.6 30.2 195.7 26.3 195.7Z" fill="white"/>
</g>
<defs>
<filter id="filter0_d_97_3611" x="0" y="0" width="257.202" height="212.103" filterUnits="userSpaceOnUse" color-interpolation-filters="sRGB">
<feFlood flood-opacity="0" result="BackgroundImageFix"/>
<feColorMatrix in="SourceAlpha" type="matrix" values="0 0 0 0 0 0 0 0 0 0 0 0 0 0 0 0 0 0 127 0" result="hardAlpha"/>
<feOffset dy="4"/>
<feGaussianBlur stdDeviation="2"/>
<feComposite in2="hardAlpha" operator="out"/>
<feColorMatrix type="matrix" values="0 0 0 0 0 0 0 0 0 0 0 0 0 0 0 0 0 0 0.25 0"/>
<feBlend mode="normal" in2="BackgroundImageFix" result="effect1_dropShadow_97_3611"/>
<feBlend mode="normal" in="SourceGraphic" in2="effect1_dropShadow_97_3611" result="shape"/>
</filter>
</defs>
</svg>
