<svg width="42" height="42" viewBox="0 0 42 42" fill="none" xmlns="http://www.w3.org/2000/svg">
<path d="M33.25 38.5H8.75C6.817 38.5 5.25 36.933 5.25 35V10.5C5.25 8.56703 6.817 7.00003 8.75 7.00003H12.25V3.50003H15.75V7.00003H26.25V3.50003H29.75V7.00003H33.25C35.183 7.00003 36.75 8.56703 36.75 10.5V35C36.75 36.933 35.183 38.5 33.25 38.5ZM8.75 17.5V35H33.25V17.5H8.75ZM8.75 10.5V14H33.25V10.5H8.75ZM29.75 31.5H26.25V28H29.75V31.5ZM22.75 31.5H19.25V28H22.75V31.5ZM15.75 31.5H12.25V28H15.75V31.5ZM29.75 24.5H26.25V21H29.75V24.5ZM22.75 24.5H19.25V21H22.75V24.5ZM15.75 24.5H12.25V21H15.75V24.5Z" fill="#EF9410"/>
</svg>
