<svg width="40" height="70" viewBox="0 0 40 70" fill="none" xmlns="http://www.w3.org/2000/svg">
<path d="M1.27023 39.2015C0.457902 38.3815 0.00101071 37.2691 0 36.1087V33.8913C0.0133028 32.7335 0.468344 31.6255 1.27023 30.7985L30.9473 0.863047C31.4894 0.310692 32.2273 0 32.997 0C33.7668 0 34.5046 0.310692 35.0467 0.863047L39.1461 5.00617C39.6892 5.54397 39.9952 6.28009 39.9952 7.04855C39.9952 7.81701 39.6892 8.55312 39.1461 9.09093L13.4529 35L39.1461 60.9091C39.6926 61.4569 40 62.2027 40 62.9806C40 63.7586 39.6926 64.5043 39.1461 65.0522L35.0467 69.137C34.5046 69.6893 33.7668 70 32.997 70C32.2273 70 31.4894 69.6893 30.9473 69.137L1.27023 39.2015Z" fill="white"/>
</svg>
