<svg width="25" height="25" viewBox="0 0 25 25" fill="none" xmlns="http://www.w3.org/2000/svg">
<path fill-rule="evenodd" clip-rule="evenodd" d="M12.5 0C5.59644 0 0 5.59644 0 12.5C0 19.4036 5.59644 25 12.5 25C19.4036 25 25 19.4036 25 12.5C25 5.59644 19.4036 0 12.5 0ZM4.16667 12.5C4.16667 7.89763 7.89763 4.16667 12.5 4.16667C17.1024 4.16667 20.8333 7.89763 20.8333 12.5C20.8333 17.1024 17.1024 20.8333 12.5 20.8333C7.89763 20.8333 4.16667 17.1024 4.16667 12.5ZM8.33333 12.5C8.33333 10.1988 10.1988 8.33333 12.5 8.33333C14.8012 8.33333 16.6667 10.1988 16.6667 12.5C16.6667 14.8012 14.8012 16.6667 12.5 16.6667C10.1988 16.6667 8.33333 14.8012 8.33333 12.5Z" fill="white"/>
</svg>
