<svg width="2632" height="626" viewBox="0 0 2632 626" fill="none" xmlns="http://www.w3.org/2000/svg">
<path fill-rule="evenodd" clip-rule="evenodd" d="M752.248 149.815C745.122 151.579 740.385 154.12 740.385 156.179C740.385 156.865 741.652 158.968 743.2 160.852C745.38 163.505 746.015 165.576 746.015 170.029C746.015 179.454 746.885 180.242 757.314 180.242H766.282V196.382V212.523L763.186 212.543C758.472 212.574 746.223 215.471 738.938 218.279C734.721 219.904 730.073 223.018 725.752 227.116C714.667 237.625 710.03 251.062 710.001 272.763C709.986 283.633 710.261 285.441 712.236 287.463C716.42 291.747 735.963 289.823 734.129 285.308C733.709 284.274 733.107 275.88 732.789 266.654C731.73 235.865 737.027 227.942 760.866 224.659L766.147 223.931L766.496 255.216C766.824 284.627 766.976 286.597 769.031 288.134C771.621 290.072 781.863 290.287 788.03 288.534C791.906 287.433 792.265 287.01 791.702 284.217C790.265 277.103 788.804 254.675 788.803 239.756L788.801 223.755L795.839 224.542C807.11 225.804 811.502 227.425 815.929 231.959C821.848 238.019 823.029 244.988 822.1 268.383C821.662 279.414 821.794 287.539 822.426 288.503C823.899 290.745 839.2 289.505 844.833 286.686C850.087 284.057 850.677 281.252 846.757 277.533L843.722 274.652L844.486 255.405C846.002 217.277 842.687 214.643 789.083 211.388C788.928 211.378 788.801 202.587 788.801 191.853C788.801 168.171 789.09 168.712 776.505 168.712H767.746L768.287 160.077C769.085 147.366 767.146 146.126 752.248 149.815ZM1753.76 152.026C1741.1 155.634 1733.01 163.062 1729 174.748C1723.95 189.445 1722.87 200.585 1722.83 238.275L1722.79 273.825L1726.11 276.749C1729.09 279.373 1730.12 279.611 1736.25 279.076C1739.99 278.749 1744.41 277.939 1746.05 277.277C1748.84 276.156 1748.98 275.763 1748.09 271.709C1744.33 254.639 1743.82 188.749 1747.35 175.656C1749.69 166.991 1754.15 162.947 1761.38 162.95C1768.58 162.952 1774.11 165.973 1776.65 171.302C1779.72 177.736 1780.55 195.478 1779.53 233.122C1779.02 251.732 1779.07 268.063 1779.63 270.611C1781.29 278.207 1783.92 279.908 1794.72 280.368C1819.82 281.438 1844.65 265.962 1842.01 250.889C1840.47 242.052 1834.09 238.49 1821.32 239.335C1816.68 239.643 1810.42 240.778 1807.42 241.857C1804.42 242.935 1801.84 243.651 1801.68 243.447C1801.53 243.243 1801.83 229.068 1802.35 211.947C1802.86 194.826 1802.98 178.224 1802.61 175.053C1801.17 162.931 1796.21 155.925 1787.02 153.044C1778.6 150.405 1761.3 149.876 1753.76 152.026ZM2486.31 152.084C2466.38 156.655 2456.25 167.022 2455.98 183.117C2455.78 194.663 2459.58 201.263 2476 217.89C2485.97 227.987 2490.78 233.796 2492.98 238.406C2500.86 254.896 2496.06 267.847 2482.08 267.859C2475.22 267.864 2459.93 270.882 2457.86 272.635C2456.63 273.679 2456.43 275.5 2457.01 280.231C2457.7 285.931 2457.56 286.505 2455.37 287.092C2452.33 287.907 2452.03 293.788 2454.95 295.358C2457.22 296.573 2468.26 295.251 2474.99 292.959L2479.44 291.44L2479.29 285.416L2479.14 279.392L2485.48 279.379C2499.87 279.348 2511.06 273.642 2515.98 263.835C2518.44 258.926 2518.85 256.598 2518.84 247.705C2518.83 238.76 2518.41 236.422 2515.78 230.935C2514.11 227.428 2510.94 222.413 2508.75 219.79L2504.76 215.022L2516.42 203.107C2529.69 189.534 2533.2 183.405 2533.8 172.748C2534.33 163.279 2531.84 158.8 2523.64 154.472C2518.23 151.616 2515.88 151.125 2505.75 150.742C2497.87 150.443 2491.56 150.879 2486.31 152.084ZM1903.65 152.718C1894.67 154.246 1887.75 157.681 1887.75 160.613C1887.75 161.937 1888.47 163.305 1889.36 163.653C1892.11 164.734 1893.38 170.895 1893.38 183.17V194.977L1880.71 195.742C1865.68 196.651 1856.33 198.324 1853.88 200.541C1852.52 201.768 1852.22 203.672 1852.61 208.492C1853.03 213.683 1852.8 214.829 1851.37 214.829C1848.98 214.829 1847.93 218.802 1849.5 221.823C1850.67 224.061 1851.39 224.218 1857.17 223.507C1872.94 221.566 1876.93 219.052 1875.38 212.019L1874.53 208.184L1879.61 207.471C1882.4 207.079 1886.64 206.759 1889.03 206.759H1893.38L1893.47 234.717C1893.53 250.095 1893.94 265.726 1894.39 269.454C1895.5 278.551 1897.18 279.784 1907.45 279.017C1919.26 278.133 1919.65 277.854 1918.89 270.861C1917.97 262.46 1915.51 207.912 1916.03 207.45C1916.27 207.238 1920.96 206.703 1926.47 206.263L1936.47 205.459L1935.74 210.183C1935.3 212.974 1935.52 215.899 1936.27 217.332C1937.43 219.562 1938.19 219.701 1945.58 219.057C1957.23 218.041 1960.88 217.092 1962.1 214.76C1963.46 212.16 1962.37 209.065 1960.1 209.065C1958.65 209.065 1958.49 207.874 1959.11 201.725C1960.14 191.44 1959.72 191.21 1944.1 193.441C1937.22 194.425 1928.05 195.229 1923.74 195.229H1915.9V174.448V153.667L1913.01 152.543C1911.42 151.925 1910.03 151.48 1909.91 151.553C1909.8 151.627 1906.98 152.152 1903.65 152.718ZM2044.57 153.226C2040.72 154.047 2036.16 155.408 2034.44 156.249C2030.74 158.057 2029.69 162.479 2032.46 164.55C2034.59 166.152 2036.25 173.521 2036.33 181.743C2036.37 186.792 2036.66 187.382 2039.63 188.441L2042.89 189.603L2039.07 195.42C2034.18 202.858 2030.5 215.116 2030.96 222.468L2031.31 228.088L2036.81 228.445L2042.3 228.802L2041.58 237.092C2041.17 241.652 2040.82 252.051 2040.8 260.203C2040.74 277.978 2041.42 279.392 2050.13 279.392C2053.16 279.392 2057.94 278.801 2060.74 278.079C2065.22 276.923 2065.73 276.476 2065.02 274.332C2063.71 270.441 2063.16 236.955 2064.25 227.816C2064.79 223.227 2064.89 218.89 2064.46 218.178C2064.03 217.466 2061.27 216.606 2058.33 216.267L2052.98 215.65L2053.59 208.72C2054.72 196.035 2062.6 188.318 2074.43 188.314C2082.58 188.311 2086.71 190.75 2089.68 197.329C2092.01 202.503 2092.11 204.231 2092.11 239.617C2092.11 259.908 2092.52 277.159 2093.02 277.951C2093.52 278.745 2095.8 279.384 2098.09 279.375C2103.29 279.354 2116.24 276.283 2118.22 274.603C2120.44 272.718 2120.05 268.226 2117.61 267.574C2114.36 266.705 2113.89 259.95 2114.75 226.927C2115.44 200.108 2115.32 196.205 2113.58 190.838C2111.48 184.366 2107.55 180.495 2100.56 178.003C2094.7 175.915 2075.08 175.1 2068.02 176.65C2059.56 178.506 2058.9 177.688 2058.88 165.401C2058.87 159.93 2058.48 154.837 2058.01 154.083C2056.66 151.905 2052.13 151.617 2044.57 153.226ZM2173.12 152.562C2160.39 154.475 2149.01 162.768 2144.56 173.375C2140.13 183.9 2138.41 198.485 2138.37 225.782C2138.31 262.344 2140.44 271.903 2149.68 276.602C2153.53 278.555 2156.34 278.793 2173.58 278.621L2193.11 278.426L2192.39 283.388C2191.34 290.519 2193.36 292.275 2201.7 291.474C2212.9 290.396 2216.53 289.6 2218.24 287.851C2220.48 285.563 2220.35 284.513 2217.5 281.793C2215.39 279.786 2215.18 278.69 2215.8 273.237C2216.87 263.964 2216.09 263.61 2199.88 265.958C2184.29 268.214 2173.1 268.377 2169.35 266.405C2163.36 263.253 2162.46 260.397 2161.16 240.287C2159.82 219.644 2161.27 180.17 2163.6 173.901C2166.74 165.458 2173.63 162.258 2185.82 163.595L2193.14 164.397L2192.47 169.725C2191.47 177.598 2192.52 178.572 2201.57 178.188C2211.41 177.772 2217.33 176.112 2218.76 173.368C2220.17 170.67 2219.13 167.559 2216.82 167.559C2215.39 167.559 2215.2 166.426 2215.74 161.122C2216.76 150.954 2217.64 151.399 2196.99 151.563C2186.99 151.641 2176.25 152.092 2173.12 152.562ZM2260.76 153.161C2250.81 155.373 2247.56 157.198 2247.15 160.798C2246.88 163.211 2247.38 163.967 2249.67 164.554C2251.41 165.002 2254.08 167.638 2256.52 171.324C2260.05 176.67 2260.3 177.491 2258.66 178.512C2246.12 186.347 2241.94 191.447 2238.02 203.7C2234.4 214.989 2233.44 224.277 2233.43 247.804C2233.42 270.591 2234.26 276.232 2237.97 278.264C2242.3 280.636 2259.36 278.431 2259.28 275.508C2259.26 274.791 2258.51 269.016 2257.62 262.675C2255.32 246.488 2255.41 213.631 2257.77 203.005C2260.24 191.881 2263.62 188.312 2271.67 188.312C2287.87 188.312 2290.14 195.686 2289.54 246.534L2289.16 278.816L2293.09 279.199C2297.94 279.669 2309.43 277.44 2313.63 275.215C2317.4 273.222 2317.65 269.914 2314.21 267.57L2311.68 265.843V229.095C2311.68 192.924 2311.63 192.269 2309.08 187.363C2307.08 183.524 2305.14 181.74 2300.63 179.592C2297.42 178.059 2293.39 176.8 2291.69 176.794C2287.63 176.779 2285.24 174.176 2280.11 164.185C2276.06 156.29 2271.71 151.314 2269.02 151.51C2268.33 151.56 2264.61 152.303 2260.76 153.161ZM2571.77 152.175C2562.08 152.763 2551.12 154.996 2549.77 156.66C2549.06 157.537 2548.6 160.478 2548.74 163.196C2549.1 170.164 2548.91 171.018 2547 171.018C2544.32 171.018 2544.73 178.743 2547.45 179.628C2549.87 180.415 2562.8 178.521 2567.5 176.693C2571.67 175.07 2572.48 173.511 2571.71 168.579C2571.14 164.922 2571.38 164.321 2573.67 163.694C2578.39 162.401 2583.4 162.916 2585.33 164.888C2587.01 166.607 2587.13 168.703 2586.43 183.233C2585.48 202.556 2585.23 202.147 2598.2 202.147C2604.39 202.147 2606.34 202.551 2606.86 203.942C2607.23 204.929 2605.95 216.991 2604.01 230.747C2599.21 264.761 2598.48 276.055 2600.93 278.135C2604.93 281.535 2628.76 276.53 2629.57 272.121C2629.78 270.957 2628.59 268.749 2626.88 267.12C2623.81 264.209 2623.8 264.17 2624.51 252.486C2624.91 246.042 2626.75 231.431 2628.61 220.017C2630.47 208.603 2631.99 198.115 2632 196.711C2632.02 193.027 2628.78 191.771 2619.28 191.771C2613.5 191.771 2610.49 191.274 2609.6 190.168C2608.68 189.034 2608.51 184.073 2609.01 173.163C2609.85 155.038 2609.41 153.908 2600.95 152.486C2595.62 151.59 2583.55 151.461 2571.77 152.175ZM1470.94 155.465C1456.37 157.272 1447.59 159.126 1445.6 160.816C1444.68 161.598 1444.12 164.652 1444.12 168.853C1444.12 174.108 1443.74 175.63 1442.43 175.63C1439.82 175.63 1440.1 183.66 1442.71 183.822C1450.84 184.326 1462.88 181.78 1465.62 178.973C1467.31 177.241 1467.63 175.797 1467.09 172.328C1466.42 168.058 1466.53 167.868 1470.04 167.151C1472.04 166.742 1476.94 166.407 1480.92 166.407C1492.36 166.407 1495.82 169.245 1495.87 178.679C1495.93 187.625 1492.31 198.037 1480.12 224.052C1467.36 251.292 1463.19 263.007 1462.4 273.871C1461.85 281.396 1461.92 281.649 1464.87 283.028C1468.38 284.662 1478.92 283.241 1486.06 280.173C1489.3 278.778 1490.28 277.705 1490.28 275.539C1490.28 273.99 1489.46 272.398 1488.45 272.002C1486.94 271.411 1486.75 270.242 1487.37 265.44C1488.46 257.064 1491.36 249.561 1503.85 222.9C1517.22 194.322 1519.73 187.067 1520.39 175.053C1520.84 166.779 1520.62 165.415 1518.23 161.795C1513.04 153.946 1498.69 152.025 1470.94 155.465ZM2373.6 155.614C2368.12 157.346 2364.03 160.046 2364.03 161.929C2364.03 162.439 2365.17 163.944 2366.57 165.272C2368.89 167.481 2369.13 168.899 2369.47 182.034L2369.85 196.382H2359.72C2348.79 196.382 2333.24 198.933 2330.63 201.154C2329.41 202.19 2329.19 204.014 2329.75 208.573C2330.41 214.001 2330.24 214.756 2328.05 215.954C2326.3 216.912 2325.71 218.164 2325.96 220.383C2326.26 222.991 2326.93 223.536 2330.25 223.859C2335.4 224.359 2347 222.033 2350.35 219.825C2352.7 218.28 2352.91 217.508 2352.25 212.997L2351.51 207.912H2360.42H2369.34L2370.05 215.694C2370.45 219.975 2370.78 233.999 2370.78 246.859C2370.79 273.036 2371.67 277.555 2377.06 278.939C2378.73 279.369 2386.49 279.375 2394.3 278.952L2408.51 278.184L2408.12 283.88C2407.6 291.611 2409.19 292.428 2421.62 290.833C2430.81 289.652 2434.97 287.663 2434.97 284.442C2434.97 283.612 2433.9 282.344 2432.58 281.626C2430.43 280.446 2430.27 279.671 2430.93 273.687C2431.99 264.07 2431.08 263.564 2416.97 265.963C2410.82 267.008 2403.72 267.863 2401.18 267.863C2394.31 267.863 2393.73 265.51 2392.95 234.259L2392.3 208.149L2394.78 207.469C2396.14 207.095 2400.73 206.783 2404.97 206.775L2412.7 206.759L2411.95 210.845C2411.03 215.886 2411.92 219.03 2414.46 219.707C2417.27 220.456 2433.62 218.488 2436.17 217.092C2438.78 215.662 2439.06 210.745 2436.59 209.772C2435.21 209.232 2434.9 207.592 2435.16 202.194C2435.62 192.728 2434.9 192.188 2424.02 193.868C2419.2 194.611 2410.08 195.558 2403.75 195.973L2392.23 196.726L2391.93 175.514L2391.62 154.301L2385.43 154.068C2382.02 153.939 2376.7 154.635 2373.6 155.614ZM897.458 155.963C883.885 157.629 872.947 162.789 866.8 170.427C862.679 175.546 860.86 181.429 860.875 189.599C860.893 199.988 864.577 206.165 880.275 222.133C895.878 238.003 900.18 244.808 901.087 255.049C902.093 266.409 896.964 272.475 886.353 272.475C879.753 272.475 864.406 275.512 862.403 277.213C861.234 278.207 861.02 280.044 861.573 284.317C862.238 289.453 862.039 290.297 859.742 292.071C857.689 293.656 857.323 294.716 857.948 297.265L858.733 300.468L866.836 299.819C871.292 299.461 876.965 298.472 879.442 297.618C883.919 296.076 883.946 296.031 883.905 290.184L883.865 284.299L892.35 283.657C897.017 283.303 903.315 282.125 906.345 281.039C926.583 273.783 930.065 244.513 913.102 224.222L908.965 219.274L913.345 215.71C921.378 209.173 931.863 197.029 934.836 190.82C937.905 184.413 939.339 175.526 938.114 170.526C936.801 165.173 930.895 159.612 924.643 157.843C917.075 155.701 905.896 154.927 897.458 155.963ZM1566.64 156.15C1542.48 159.377 1527.5 174.606 1530.77 192.619C1532.48 202.001 1537.19 207.442 1556.31 222.107C1568.79 231.678 1571.68 234.818 1573.65 240.909C1575.44 246.474 1573.34 251.47 1568.31 253.625C1566.23 254.515 1559.6 255.747 1553.58 256.364C1542.24 257.527 1535.47 258.85 1533.06 260.372C1532.08 260.993 1531.88 263.084 1532.37 267.399C1533 272.83 1532.81 273.689 1530.75 274.814C1529.01 275.769 1528.52 277.004 1528.78 279.757C1529.08 282.918 1529.61 283.476 1532.59 283.774C1538.1 284.325 1552.59 280.819 1554.23 278.535C1555.17 277.231 1555.43 274.971 1554.98 272.187L1554.26 267.863L1559.71 267.849C1569.77 267.823 1601.14 266.65 1606.01 266.118L1610.83 265.591L1610.12 271.101C1609.1 278.947 1610.59 279.931 1622.04 278.953C1634.2 277.914 1636.66 276.851 1636.66 272.637C1636.66 270.233 1636.01 269.111 1634.36 268.67C1632.65 268.213 1632.2 267.366 1632.6 265.365C1634.27 256.913 1634.27 255.203 1632.54 253.436C1631.41 252.284 1629.65 251.824 1627.79 252.2C1621.07 253.557 1606.23 255.155 1597.57 255.452L1588.32 255.771L1592.09 251.729C1597 246.464 1598.37 243.564 1598.37 238.503C1598.37 232.163 1595.83 227.24 1589.09 220.571L1582.95 214.489L1591.06 206.6C1595.52 202.261 1600.39 196.371 1601.87 193.512C1603.76 189.867 1605.27 188.312 1606.93 188.312C1608.24 188.312 1612.44 187.975 1616.28 187.565L1623.27 186.818L1622.53 192.514C1621.44 200.878 1622.84 201.7 1635.56 200.204C1641.08 199.556 1646.37 198.367 1647.32 197.563C1649.62 195.612 1649.59 190.618 1647.28 190.618C1645.83 190.618 1645.58 189.3 1645.85 183.154C1646.04 178.672 1645.66 175.165 1644.89 174.379C1643.94 173.399 1640.47 173.537 1631.2 174.926C1624.38 175.947 1616.27 176.783 1613.19 176.783H1607.58L1606.8 172.078C1605.68 165.295 1600.59 159.856 1593.47 157.851C1585.44 155.591 1575.54 154.963 1566.64 156.15ZM1357.24 158.779C1348.12 160.788 1347.14 161.909 1348.01 169.425C1348.61 174.674 1348.44 175.63 1346.9 175.63C1344.53 175.63 1343.23 180.898 1345.04 183.139C1346.82 185.33 1351.08 185.306 1360.78 183.05C1370 180.901 1371.43 179.489 1370.62 173.313L1370.02 168.712H1377.21C1384.03 168.712 1384.43 168.867 1385.14 171.74C1385.55 173.405 1385.61 181.12 1385.28 188.885C1384.96 196.65 1385.12 203.717 1385.65 204.592C1386.28 205.651 1389.72 206.375 1395.94 206.759L1405.27 207.335L1405.62 211.084C1405.82 213.147 1404.7 223.523 1403.13 234.143C1399.13 261.318 1397.75 277.558 1399.14 281.285C1400.25 284.282 1400.39 284.318 1408.11 283.582C1412.43 283.172 1418.62 281.931 1421.87 280.827C1426.8 279.15 1427.85 278.313 1428.13 275.796C1428.38 273.585 1427.88 272.617 1426.25 272.181C1421.57 270.928 1421.95 259.2 1427.84 222.363C1431.2 201.382 1431.25 199.125 1428.43 197.576C1427.23 196.92 1422.43 196.382 1417.77 196.382C1406.79 196.382 1406.68 196.183 1408.15 178.819C1409.42 163.908 1408.66 160.096 1404.09 158.315C1400.02 156.733 1364.95 157.081 1357.24 158.779ZM2503.79 165.924C2511.83 173.261 2510.83 186.618 2501.25 199.601L2496.65 205.844L2491.11 200.255C2478.64 187.685 2476.3 171.366 2486.07 165.081C2490.57 162.179 2500.19 162.635 2503.79 165.924ZM905.902 169.579C916.615 175.058 916.269 191.447 905.149 205.343L901.102 210.4L896.094 205.409C888.284 197.626 885.109 191.29 885.109 183.487C885.109 170.548 894.941 163.972 905.902 169.579ZM1575.97 170.194C1583.07 175.082 1584.2 186.57 1578.64 197.405C1573.36 207.692 1573.29 207.722 1567.33 202.718C1556.58 193.7 1552.75 184.989 1555.7 176.261C1558.46 168.078 1568.52 165.067 1575.97 170.194ZM974.518 174.839C958.144 179.547 949.88 197.015 949.834 227.013C949.811 242.802 951.701 250.142 957.024 254.928C966.849 263.76 990.153 262.487 1005.19 252.297L1009.61 249.305L1016.02 252.532C1021.61 255.341 1023.75 255.756 1032.57 255.752C1045.41 255.744 1052.56 253.311 1060.07 246.398C1066.75 240.245 1070.81 232.272 1073.18 220.593C1074.15 215.866 1075.03 211.929 1075.15 211.845C1075.27 211.761 1078.85 211.374 1083.11 210.984L1090.86 210.276L1090.19 215.274C1089.1 223.44 1090.64 224.569 1101.65 223.629C1112.05 222.742 1115.85 221.571 1116.83 218.953C1117.78 216.428 1116.56 213.676 1114.49 213.676C1113.05 213.676 1112.89 212.479 1113.51 206.236C1114.49 196.448 1113.6 195.911 1100.03 198.165C1094.51 199.083 1086.58 199.834 1082.4 199.837C1074.86 199.841 1074.8 199.816 1074.79 196.671C1074.77 185.645 1067.93 176.727 1057.85 174.585C1051.06 173.141 1039.56 174.273 1029.29 177.395C1023.89 179.038 1021.97 178.538 1021.89 175.465C1021.85 173.668 1018.1 173.559 1012.07 175.183C1006.95 176.559 1004.22 176.682 999.358 175.752C988.217 173.62 979.828 173.311 974.518 174.839ZM1259.69 175.025C1255.8 175.923 1249.91 177.924 1246.6 179.471C1240.86 182.162 1240.34 182.213 1234.55 180.643C1231.22 179.74 1223.81 178.959 1218.08 178.91C1208.97 178.832 1206.89 179.207 1201.52 181.896C1194.4 185.462 1190.38 189.903 1186.55 198.453C1180.62 211.641 1179.09 235.708 1183.46 246.827C1187.47 257.024 1197.89 261.676 1214.36 260.625C1226.25 259.867 1232.86 257.493 1238.35 252.008C1243.89 246.472 1246.1 240.064 1250.4 217.119C1252.35 206.665 1254.52 196.131 1255.22 193.709C1256.6 188.905 1259.72 186.006 1263.51 186.006C1268.43 186.006 1268.71 187.836 1267.2 210.018C1265 242.255 1266.28 244.338 1288.17 244.087C1302.26 243.924 1310.09 241.696 1318.63 235.411C1328.43 228.206 1334.9 213.628 1334.9 198.739C1334.9 185.793 1330.97 178.339 1322.61 175.433C1316.94 173.462 1304.19 173.799 1295.16 176.157C1288.24 177.961 1287.17 177.985 1283.9 176.401C1278.45 173.759 1267.8 173.153 1259.69 175.025ZM997.584 189.08L1001.84 191.157L1001.4 213.081C1001.02 232.363 1000.68 235.653 998.576 240.382C995.835 246.567 993.393 248.264 987.242 248.264C982.365 248.264 979.032 245.502 976.807 239.617C975.108 235.124 974.043 210.599 975.106 200.438C975.798 193.815 976.478 191.962 979.264 189.11C982.279 186.022 983.101 185.762 987.962 186.351C990.914 186.709 995.245 187.937 997.584 189.08ZM1044.37 188.86C1048.37 192.57 1049.44 198.397 1049.45 216.558C1049.47 239.673 1047.82 243.652 1038.22 243.652C1032.52 243.652 1028 240.923 1026.33 236.481C1025.45 234.124 1024.72 224.41 1024.4 210.706L1023.9 188.713L1027.67 187.416C1032.91 185.618 1041.69 186.377 1044.37 188.86ZM1302.68 187.11C1307.74 189.08 1309.43 194.369 1309.5 208.488C1309.53 215.463 1309.18 222.583 1308.7 224.308C1307.44 228.94 1303.54 232.123 1299.14 232.123C1289.74 232.123 1288.12 227.515 1289.27 204.062C1290.15 185.942 1289.94 186.444 1296.82 186.14C1298.49 186.066 1301.12 186.503 1302.68 187.11ZM1232.34 192.446C1232.64 192.754 1231.74 200.64 1230.34 209.971C1225.51 242.119 1223.29 248.264 1216.51 248.264C1207.82 248.264 1206.01 243.439 1206.15 220.594C1206.27 200.523 1207.52 195.62 1213.29 192.566C1216.43 190.905 1218.72 190.622 1224.51 191.183C1228.52 191.569 1232.04 192.139 1232.34 192.446ZM1814.29 251.797C1818.31 253.234 1820.67 258.023 1819.56 262.529C1818.64 266.284 1816.01 267.863 1810.69 267.863C1805.74 267.863 1802.17 264.526 1802.17 259.887C1802.17 258.037 1801.88 255.729 1801.51 254.758C1801.04 253.492 1801.91 252.68 1804.61 251.885C1809.69 250.387 1810.32 250.382 1814.29 251.797ZM1290.16 397.177C1284.18 398.55 1274.18 405.413 1269.71 411.216C1262.25 420.9 1259.38 435.155 1262.15 448.709C1266.19 468.42 1277.83 478.093 1299.38 479.645C1309.01 480.339 1327.73 478.331 1330.05 476.352C1330.97 475.573 1331.56 470.771 1331.76 462.307L1332.08 449.448L1335.74 448.344C1338.11 447.631 1339.4 446.511 1339.4 445.174C1339.4 443.277 1338 443.107 1322.43 443.107C1307.19 443.107 1305.49 443.303 1305.82 445.029C1306.02 446.086 1307.7 447.452 1309.56 448.065C1315.41 449.997 1315.76 450.748 1315.76 461.642V471.825L1311.76 472.592C1299.87 474.876 1288.26 468.36 1281.82 455.789C1279.44 451.141 1279.16 449.1 1279.16 436.189C1279.16 423.564 1279.47 421.193 1281.63 417.057C1287.04 406.709 1296.21 401.918 1308.18 403.188C1318.18 404.249 1324.82 408.942 1326.6 416.2C1327.07 418.129 1328.06 418.895 1330.08 418.895C1332.47 418.895 1332.8 418.493 1332.2 416.301C1331.82 414.875 1331.18 410.709 1330.78 407.042C1330.39 403.376 1329.61 400.091 1329.06 399.742C1328.51 399.393 1323.64 398.373 1318.25 397.477C1307.26 395.65 1297.28 395.544 1290.16 397.177ZM1509.54 409.169C1506.98 416.565 1502.76 428.789 1500.18 436.332C1497.6 443.876 1495.13 449.653 1494.69 449.171C1493.31 447.655 1478.91 405.965 1479.33 404.697C1479.54 404.033 1481.46 402.889 1483.59 402.155C1485.72 401.421 1487.47 400.088 1487.47 399.193C1487.47 397.875 1484.1 397.506 1469.73 397.249C1452.7 396.944 1452 397.022 1452 399.214C1452 400.906 1453.01 401.692 1455.9 402.246C1458.04 402.659 1460.27 403.59 1460.86 404.317C1461.44 405.043 1467.83 421.72 1475.06 441.377C1482.28 461.035 1488.92 477.874 1489.79 478.798C1490.79 479.847 1491.76 480.063 1492.36 479.374C1492.9 478.768 1497.34 466.474 1502.22 452.056C1507.11 437.638 1511.4 425.835 1511.76 425.827C1512.12 425.82 1516.61 437.357 1521.74 451.465C1531 476.957 1533.21 481.525 1535.2 479.374C1535.76 478.768 1541.89 461.928 1548.83 441.954C1555.77 421.979 1561.9 405.145 1562.45 404.543C1563.01 403.941 1565.11 402.903 1567.13 402.237C1569.14 401.571 1570.79 400.247 1570.79 399.296C1570.79 397.859 1568.6 397.566 1557.84 397.566C1547.23 397.566 1544.89 397.871 1544.89 399.253C1544.89 400.18 1546.51 401.414 1548.48 401.995C1550.46 402.575 1552.34 403.759 1552.67 404.626C1553.19 406.002 1541.03 444.499 1538.74 448.733C1538.17 449.788 1536.82 447.452 1534.73 441.815C1519.86 401.712 1517.69 396.41 1516.01 396.078C1514.63 395.806 1513.1 398.901 1509.54 409.169ZM1637.88 398.352C1632.73 411.744 1609.15 468.439 1607.95 470.328C1607.1 471.668 1604.85 473.081 1602.95 473.47C1600.46 473.981 1599.5 474.829 1599.5 476.512C1599.5 478.721 1600.2 478.847 1612.45 478.847C1623.15 478.847 1625.4 478.551 1625.4 477.133C1625.4 476.191 1623.62 474.661 1621.46 473.733C1619.29 472.806 1617.51 471.373 1617.5 470.547C1617.5 469.722 1618.89 465.011 1620.59 460.078L1623.69 451.109L1636.51 451.431L1649.32 451.754L1652.53 460.683C1654.29 465.593 1655.48 470.284 1655.17 471.106C1654.86 471.927 1653.11 473.183 1651.26 473.894C1649.42 474.605 1647.92 476.011 1647.92 477.017C1647.92 478.607 1650.13 478.847 1664.81 478.847C1680.53 478.847 1681.7 478.699 1681.7 476.698C1681.7 475.291 1680.29 473.996 1677.63 472.951C1673.59 471.366 1673.44 471.068 1658.68 433.883C1646.04 402.04 1643.44 396.358 1641.36 396.046C1639.65 395.789 1638.6 396.486 1637.88 398.352ZM1933.61 397.091C1923.82 399.453 1914.24 406.152 1909.24 414.122C1898.94 430.563 1900.94 455.57 1913.59 468.526C1921.84 476.974 1929.02 479.35 1946.3 479.353C1954.04 479.354 1962.2 478.973 1964.42 478.506C1968.38 477.675 1968.53 477.444 1970.95 468.407C1972.31 463.322 1973.71 458.401 1974.06 457.474C1974.5 456.278 1973.89 455.789 1971.92 455.789C1969.78 455.789 1968.7 456.84 1967.1 460.457C1963.97 467.567 1958.8 471.606 1951.65 472.52C1935.6 474.573 1923.57 463.406 1920.21 443.344C1917.52 427.312 1922.45 412.603 1932.54 406.533C1937.1 403.783 1939.07 403.331 1946.5 403.331C1956.83 403.331 1960.1 405.215 1964.15 413.479C1965.91 417.069 1967.52 418.895 1968.94 418.895C1971.44 418.895 1971.43 419.131 1969.81 408.025C1968.43 398.492 1968.99 399.02 1958.19 397.055C1950.37 395.628 1939.61 395.645 1933.61 397.091ZM2439.19 397.089C2418.17 402.16 2404.56 424.817 2409.08 447.194C2413.23 467.78 2425.48 478.319 2446.79 479.651C2454.73 480.146 2472.66 478.681 2473.88 477.436C2474.34 476.96 2480.01 457.397 2480.01 456.267C2480.01 455.916 2478.89 455.795 2477.52 455.996C2475.88 456.238 2473.89 458.396 2471.75 462.253C2467.92 469.135 2464.09 471.785 2456.67 472.682C2444.39 474.165 2433.28 466.401 2428.25 452.838C2424.62 443.05 2424.59 427.63 2428.17 419.193C2433.09 407.611 2442.79 401.844 2455.17 403.143C2462.63 403.926 2466.18 406.429 2469.87 413.497C2471.98 417.534 2473.34 418.89 2475.3 418.892C2477.26 418.894 2477.76 418.395 2477.31 416.878C2476.98 415.768 2476.21 411.549 2475.58 407.502C2474.96 403.454 2474.21 399.894 2473.91 399.59C2473.62 399.285 2470.18 398.334 2466.28 397.477C2458.32 395.73 2445.58 395.547 2439.19 397.089ZM728.703 397.91C727.783 399.434 729.492 401.19 733.066 402.389L736.444 403.522L736.742 437.676L737.041 471.832L732.52 473.078C729.193 473.996 727.999 474.921 727.999 476.586C727.999 478.776 728.945 478.847 757.762 478.847C785.15 478.847 787.566 478.686 788.063 476.829C788.36 475.719 789.222 471.254 789.978 466.905C791.127 460.304 791.097 458.828 789.797 457.968C788.151 456.879 787.473 457.561 782.81 464.995C781.423 467.205 779.037 469.694 777.508 470.526C773.961 472.455 757.072 471.843 754.542 469.694C753.01 468.392 752.77 463.933 752.77 436.693C752.77 402.85 752.495 404.391 758.95 402.178C760.8 401.544 762.484 400.118 762.691 399.008C763.038 397.158 761.658 396.99 746.163 396.99C736.865 396.99 729.008 397.404 728.703 397.91ZM838.361 397.855C838.398 399.707 840.176 401.304 843.411 402.389L846.789 403.522L847.087 437.545L847.385 471.566L842.865 473.385C840.244 474.438 838.344 475.968 838.344 477.026C838.344 478.605 840.589 478.847 855.234 478.847C869.878 478.847 872.123 478.605 872.123 477.026C872.123 475.969 870.228 474.441 867.619 473.391L863.115 471.58V437.919V404.257L867.619 402.446C870.228 401.396 872.123 399.868 872.123 398.812C872.123 397.232 869.878 396.99 855.234 396.99C845.944 396.99 838.352 397.38 838.361 397.855ZM919.414 399.232C919.414 400.729 920.49 401.66 922.83 402.186C924.709 402.609 926.96 404.077 927.834 405.449C928.707 406.821 935.732 423.93 943.446 443.471C951.158 463.011 957.752 479.287 958.098 479.641C960.068 481.66 963.056 475.63 976.699 442.109C984.981 421.756 992.328 404.645 993.025 404.087C993.721 403.529 995.684 402.732 997.387 402.315C999.474 401.805 1000.48 400.813 1000.48 399.274C1000.48 397.129 999.691 396.99 987.535 396.99C975.515 396.99 974.586 397.149 974.586 399.205C974.586 400.738 975.648 401.657 978.041 402.195C979.94 402.622 981.785 403.747 982.139 404.695C983.03 407.07 964.257 455.144 963.197 453.204C960.807 448.831 946.347 406.959 946.65 405.289C946.845 404.212 948.651 402.834 950.662 402.228C952.993 401.524 954.319 400.39 954.319 399.098C954.319 397.251 952.765 397.069 936.866 397.058C920.478 397.046 919.414 397.179 919.414 399.232ZM1047.77 398.71C1047.77 399.657 1049.68 401.347 1052 402.466L1056.22 404.501L1056.52 437.211C1056.72 459.458 1056.43 470.402 1055.6 471.427C1054.92 472.256 1052.89 473.268 1051.07 473.676C1048.8 474.187 1047.77 475.118 1047.77 476.663C1047.77 478.801 1048.57 478.893 1064.38 478.59C1077.78 478.332 1080.99 477.956 1080.99 476.644C1080.99 475.749 1079.22 474.406 1077.05 473.659L1073.11 472.301V437.912V403.524L1076.49 402.389C1080.06 401.19 1081.77 399.434 1080.85 397.91C1080.54 397.404 1072.98 396.99 1064.03 396.99C1050.37 396.99 1047.77 397.264 1047.77 398.71ZM1133.35 399.129C1133.35 400.554 1134.57 401.627 1137.01 402.342L1140.67 403.416L1140.97 437.492L1141.26 471.566L1136.74 473.385C1134.12 474.438 1132.22 475.968 1132.22 477.026C1132.22 478.581 1134.12 478.847 1145.17 478.847C1156.22 478.847 1158.12 478.581 1158.12 477.026C1158.12 475.969 1156.22 474.441 1153.62 473.391L1149.11 471.58V443.997V416.413L1151.73 419.671C1153.17 421.464 1162.89 434.085 1173.31 447.718C1195.22 476.364 1198.36 480 1201.13 480C1203.04 480 1203.16 477.918 1203.16 443.778C1203.16 423.855 1203.47 406.715 1203.86 405.689C1204.24 404.662 1206.27 403.089 1208.36 402.194C1210.45 401.298 1212.17 399.762 1212.17 398.778C1212.17 397.267 1210.17 396.99 1199.22 396.99C1187.27 396.99 1186.27 397.159 1186.27 399.168C1186.27 400.742 1187.36 401.554 1190.2 402.1C1192.36 402.516 1194.64 403.852 1195.29 405.082C1196 406.453 1196.33 415.588 1196.15 428.824L1195.84 450.338L1175.81 424.346C1164.79 410.051 1155 398.048 1154.04 397.673C1153.09 397.298 1148.04 396.99 1142.83 396.99C1134.34 396.99 1133.35 397.215 1133.35 399.129ZM1713.22 399.205C1713.22 400.735 1714.28 401.657 1716.65 402.19C1720.67 403.095 1721.99 405.074 1733.29 427.256L1741.37 443.11V457.475V471.841L1736.87 473.082C1733.7 473.955 1732.36 474.949 1732.36 476.426C1732.36 478.366 1733.7 478.531 1749.82 478.576C1766.11 478.622 1767.27 478.483 1767.27 476.474C1767.27 474.951 1765.99 473.971 1762.88 473.115C1760.47 472.449 1758.19 471.089 1757.81 470.093C1757.44 469.097 1757.14 463.007 1757.15 456.559L1757.16 444.836L1767.99 424.372C1778.37 404.776 1779.01 403.851 1783.18 402.572C1786.19 401.65 1787.54 400.579 1787.54 399.114C1787.54 397.174 1786.41 396.99 1774.59 396.99C1763.75 396.99 1761.64 397.276 1761.64 398.744C1761.64 399.709 1763.03 401.125 1764.74 401.891C1766.44 402.658 1768.19 403.805 1768.62 404.441C1769.26 405.377 1754.91 435.53 1754.22 434.702C1754.1 434.568 1750.65 427.578 1746.55 419.166L1739.09 403.873L1742.2 402.473C1745.68 400.909 1747.13 399.289 1746.3 397.91C1745.99 397.404 1738.43 396.99 1729.48 396.99C1714.2 396.99 1713.22 397.123 1713.22 399.205ZM2025.12 398.821C2025.12 399.781 2026.9 401.328 2029.07 402.26L2033.03 403.952L2032.73 438.187L2032.43 472.421L2028.78 473.495C2026.34 474.21 2025.12 475.283 2025.12 476.708C2025.12 478.693 2026.29 478.847 2041.44 478.847C2056.59 478.847 2057.77 478.693 2057.77 476.708C2057.77 475.283 2056.55 474.21 2054.11 473.495L2050.45 472.423L2050.14 456.035L2049.83 439.648H2065.62H2081.41V455.614V471.58L2076.91 473.391C2074.3 474.441 2072.41 475.969 2072.41 477.026C2072.41 478.605 2074.65 478.847 2089.3 478.847C2103.94 478.847 2106.19 478.605 2106.19 477.026C2106.19 475.969 2104.29 474.441 2101.68 473.391L2097.18 471.58V437.919V404.257L2101.68 402.446C2104.29 401.396 2106.19 399.868 2106.19 398.812C2106.19 397.232 2103.94 396.99 2089.3 396.99C2080.01 396.99 2072.41 397.38 2072.42 397.855C2072.46 399.627 2074.2 401.199 2077.76 402.672L2081.41 404.188V418.458V432.73H2065.65H2049.89V418.334V403.939L2053.83 402.252C2056 401.325 2057.77 399.774 2057.77 398.807C2057.77 397.311 2055.33 397.05 2041.44 397.061C2027.62 397.074 2025.12 397.344 2025.12 398.821ZM2156.85 399.152C2156.85 400.768 2158 401.65 2161.08 402.393L2165.3 403.414L2165.87 432.195C2166.39 458.756 2166.62 461.333 2168.85 465.589C2171.92 471.471 2174.19 473.538 2181.1 476.721C2185.64 478.81 2188.81 479.307 2197.95 479.359C2210.8 479.433 2215.97 477.988 2221.88 472.672C2229.69 465.653 2230.48 462.112 2231.14 431.001L2231.73 403.331L2235.95 402.263C2238.94 401.507 2240.18 400.57 2240.18 399.056C2240.18 397.075 2239.2 396.94 2226.95 397.241C2216.43 397.5 2213.72 397.902 2213.72 399.2C2213.72 400.098 2215.24 401.335 2217.09 401.949C2223.66 404.116 2223.5 403.352 2223.1 430.932C2222.68 459.499 2221.84 463.09 2214.39 468.168C2208.9 471.911 2196 471.917 2190.58 468.179C2182.77 462.79 2182.23 460.535 2181.82 431.507C2181.42 403.302 2181.25 404.118 2187.82 401.949C2189.68 401.335 2191.2 400.098 2191.2 399.2C2191.2 397.875 2187.94 397.506 2174.03 397.248C2157.72 396.946 2156.85 397.041 2156.85 399.152ZM2291.02 398.805C2291.23 399.921 2292.93 401.335 2294.79 401.949C2301.19 404.062 2300.98 402.846 2300.98 437.991C2300.98 473.091 2301.26 471.448 2294.79 473.659C2292.93 474.293 2291.41 475.59 2291.41 476.541C2291.41 477.995 2294.33 478.321 2309.7 478.588C2327.37 478.893 2328 478.824 2328 476.592C2328 475.002 2327.03 474.067 2324.91 473.601C2316.48 471.754 2316.74 472.318 2316.74 456.389C2316.74 436.957 2317.46 437.06 2331.86 458.526C2337.98 467.641 2344.38 475.942 2346.08 476.972C2348.29 478.312 2351.94 478.847 2358.86 478.847C2367.51 478.847 2368.54 478.621 2368.54 476.723C2368.54 475.25 2367.18 474.184 2364.09 473.237C2360.12 472.018 2358.54 470.216 2349.07 456.083L2338.48 440.29L2343.32 437.146C2354.48 429.901 2356.01 414.034 2346.44 404.833C2339.89 398.541 2336.08 397.687 2312.42 397.212C2292.1 396.804 2290.66 396.91 2291.02 398.805ZM2530.68 398.71C2530.68 399.657 2532.58 401.347 2534.9 402.466L2539.12 404.501L2539.42 437.211C2539.62 459.458 2539.33 470.402 2538.5 471.427C2537.83 472.256 2535.79 473.268 2533.98 473.676C2531.72 474.184 2530.68 475.122 2530.68 476.632C2530.68 478.714 2531.65 478.847 2547 478.847C2562.15 478.847 2563.33 478.693 2563.33 476.708C2563.33 475.283 2562.11 474.21 2559.67 473.495L2556.01 472.423L2555.7 456.035L2555.39 439.648H2571.21H2587.04L2586.72 455.982L2586.41 472.317L2583.03 473.449C2579.46 474.646 2577.75 476.402 2578.67 477.926C2578.97 478.431 2586.54 478.814 2595.48 478.777C2610.56 478.713 2611.75 478.552 2611.75 476.563C2611.75 475.129 2610.65 474.173 2608.45 473.676C2606.63 473.268 2604.6 472.256 2603.92 471.427C2603.09 470.402 2602.8 459.458 2603 437.211L2603.3 404.501L2607.52 402.466C2609.85 401.347 2611.75 399.657 2611.75 398.71C2611.75 397.264 2609.15 396.99 2595.49 396.99C2586.54 396.99 2578.98 397.404 2578.67 397.91C2577.75 399.435 2579.46 401.19 2583.03 402.388L2586.41 403.52L2586.73 418.125L2587.04 432.73H2571.21H2555.38L2555.7 418.072L2556.01 403.414L2559.67 402.341C2562.11 401.627 2563.33 400.554 2563.33 399.129C2563.33 397.144 2562.15 396.99 2547 396.99C2533.28 396.99 2530.68 397.264 2530.68 398.71ZM2330.17 406.427C2335.53 409.855 2337.57 421.252 2334.14 428.649C2332.16 432.926 2329.41 434.506 2321.96 435.651L2316.74 436.451V420.018V403.586L2322.29 404.259C2325.34 404.628 2328.88 405.603 2330.17 406.427ZM1641.89 431.577L1646.53 444.26H1636.53H1626.54L1629.46 436.477C1631.06 432.197 1633.13 426.491 1634.06 423.795C1634.98 421.1 1636.08 418.895 1636.49 418.895C1636.91 418.895 1639.33 424.602 1641.89 431.577Z" fill="#015B8F"/>
<path fill-rule="evenodd" clip-rule="evenodd" d="M142.935 32.3958C75.6553 50.1731 15.9713 65.9463 10.3043 67.4476L0 70.1785L0.164897 313.212L0.329075 556.245L132.469 591.11C205.146 610.285 265.123 625.986 265.753 626C266.841 626.024 266.898 616.38 266.898 432.356V238.687H222.742H178.587V215.654V192.621H222.742H266.898V96.2735C266.898 19.5877 266.731 -0.0595549 266.08 0.000135468C265.631 0.0410104 210.215 14.6191 142.935 32.3958ZM313.343 131.309V192.621H357.499H401.654V215.654V238.687H357.499H313.343V397.647V556.606L435.507 556.443L557.671 556.278L557.835 313.138L558 69.9968H435.671H313.343V131.309Z" fill="#EF9410"/>
</svg>
