<svg width="30" height="30" viewBox="0 0 30 30" fill="none" xmlns="http://www.w3.org/2000/svg">
<path fill-rule="evenodd" clip-rule="evenodd" d="M14.9999 0C6.72911 0 0 6.72758 0 15.0004C0 23.2716 6.72911 30 14.9999 30C23.2707 30 30 23.2716 30 15.0004C30 6.72758 23.2707 0 14.9999 0ZM23.3624 9.99783L14.1317 20.3828C13.9044 20.6376 13.5877 20.7691 13.2685 20.7691C13.0153 20.7691 12.7609 20.686 12.5481 20.5175L6.77872 15.9012C6.2814 15.5036 6.20074 14.777 6.5988 14.2786C6.99638 13.7818 7.72319 13.7004 8.22051 14.0987L13.1341 18.0295L21.6374 8.46391C22.0598 7.98649 22.7901 7.94374 23.2661 8.36797C23.7426 8.79136 23.7859 9.5204 23.3624 9.99783Z" fill="#3FDBB1"/>
</svg>
