<svg width="40" height="40" viewBox="0 0 40 40" fill="none" xmlns="http://www.w3.org/2000/svg">
    <path fill-rule="evenodd" clip-rule="evenodd" d="M28.125 25.759L34.7917 32.4337C35.0894 32.7649 35.0747 33.2718 34.7583 33.5851L33.5917 34.7532C33.4352 34.9112 33.2222 35 33 35C32.7778 35 32.5648 34.9112 32.4083 34.7532L25.7417 28.0785C25.5573 27.8937 25.3899 27.6927 25.2417 27.4778L23.9917 25.8091C21.9234 27.4626 19.3551 28.3629 16.7083 28.3622C11.2543 28.3811 6.51504 24.6143 5.29621 19.2918C4.07739 13.9693 6.70434 8.51164 11.6218 6.14986C16.5393 3.78807 22.4349 5.15252 25.8183 9.43542C29.2017 13.7183 29.1699 19.7766 25.7417 24.0236L27.4083 25.175C27.6686 25.3418 27.909 25.5377 28.125 25.759ZM8.37493 16.6815C8.37493 21.2894 12.1059 25.0249 16.7083 25.0249C18.9184 25.0249 21.038 24.1459 22.6008 22.5812C24.1636 21.0165 25.0416 18.8943 25.0416 16.6815C25.0416 12.0736 21.3106 8.33813 16.7083 8.33813C12.1059 8.33813 8.37493 12.0736 8.37493 16.6815Z" fill="white" />
</svg>
    