<svg width="30" height="30" viewBox="0 0 30 30" fill="none" xmlns="http://www.w3.org/2000/svg">
<path d="M29.9547 2.93389C29.9281 2.53274 29.6638 2.18653 29.2839 2.05504C28.904 1.92355 28.4823 2.03235 28.2134 2.33123C27.5222 3.09955 26.6486 3.62017 25.762 3.85755C24.5289 2.70631 22.872 2.00004 21.0513 2.00004C17.1436 2.00004 13.9785 5.1723 13.9785 9.08223V9.96185C7.99597 9.49952 4.79676 4.95497 3.9335 2.64939C3.79396 2.27672 3.44674 2.02225 3.04935 2.00141C2.65196 1.98058 2.28003 2.19734 2.10229 2.55338C0.00883627 6.74675 -0.313715 10.8139 1.2078 14.2773C2.54064 17.3111 5.22111 19.7278 9.02017 21.3289C7.29358 22.5525 4.38758 24 1.00008 24C0.559542 24 0.170899 24.2883 0.043089 24.7099C-0.0847215 25.1315 0.078411 25.5871 0.444784 25.8317C3.69299 28.0005 7.09729 28.0003 10.2637 28L10.3606 28C20.0819 28 27.9599 20.1076 27.9599 10.375V9.41844C28.6868 8.67969 29.2527 7.92345 29.5995 6.9458C29.9865 5.85491 30.0645 4.59 29.9547 2.93389Z" fill="#015B8F"/>
</svg>
