<svg width="30" height="30" viewBox="0 0 30 30" fill="none" xmlns="http://www.w3.org/2000/svg">
<path d="M17.1972 15L14 17.1315V12.8685L17.1972 15Z" fill="#015B8F"/>
<path fill-rule="evenodd" clip-rule="evenodd" d="M3.01221 3.54611C10.9144 1.85279 19.0856 1.85279 26.9878 3.54611C28.7448 3.92261 30 5.47531 30 7.27218V22.7278C30 24.5247 28.7448 26.0774 26.9878 26.4539C19.0856 28.1472 10.9144 28.1472 3.01221 26.4539C1.25523 26.0774 0 24.5247 0 22.7278V7.27218C0 5.47531 1.25523 3.92261 3.01221 3.54611ZM13.5547 10.168C13.2478 9.96338 12.8533 9.94431 12.5281 10.1183C12.203 10.2923 12 10.6312 12 11V19C12 19.3688 12.203 19.7077 12.5281 19.8817C12.8533 20.0557 13.2478 20.0366 13.5547 19.8321L19.5547 15.8321C19.8329 15.6466 20 15.3344 20 15C20 14.6656 19.8329 14.3534 19.5547 14.168L13.5547 10.168Z" fill="#015B8F"/>
</svg>
